<?xml version="1.0" encoding="UTF-8" standalone="no"?>
<svg
   xmlns:dc="http://purl.org/dc/elements/1.1/"
   xmlns:cc="http://creativecommons.org/ns#"
   xmlns:rdf="http://www.w3.org/1999/02/22-rdf-syntax-ns#"
   xmlns:svg="http://www.w3.org/2000/svg"
   xmlns="http://www.w3.org/2000/svg"
   height="300"
   width="300"
   xml:space="preserve"
   enable-background="new 0 0 400 400"
   viewBox="0 0 300 300"
   y="0px"
   x="0px"
   id="Слой_1"
   version="1.1"><metadata
     id="metadata17"><rdf:RDF><cc:Work
         rdf:about=""><dc:format>image/svg+xml</dc:format><dc:type
           rdf:resource="http://purl.org/dc/dcmitype/StillImage" /><dc:title></dc:title></cc:Work></rdf:RDF></metadata><defs
     id="defs15"><pattern
       id="EMFhbasepattern"
       patternUnits="userSpaceOnUse"
       width="6"
       height="6"
       x="0"
       y="0" /></defs><g
     id="g5355"><rect
       ry="150"
       y="0"
       x="0"
       style="fill:#ff6f69;fill-opacity:1"
       id="rect4"
       height="300"
       width="300" /><g
       style="fill:#ffcc5c;fill-opacity:0.99534881"
       id="g4167"
       transform="matrix(5.9026317,0,0,5.9026317,521.39665,-711.31763)"><path
         transform="matrix(0.16941596,0,0,0.16941596,-88.332912,120.50856)"
         id="path4156"
         d="m 149.9375,79.222656 c 0,0 -63.218849,5.9e-5 -79.085938,4.123047 -8.495787,2.373802 -15.491408,9.3695 -17.865234,17.990237 -4.122953,15.8671 -4.123047,48.72656 -4.123047,48.72656 0,0 9.4e-5,32.9842 4.123047,48.60156 2.373826,8.62062 9.244506,15.49138 17.865234,17.86524 15.99203,4.24788 79.085938,4.24804 79.085938,4.24804 0,0 63.34418,-5e-5 79.21094,-4.12304 8.62079,-2.37381 15.49133,-9.11966 17.74023,-17.86524 4.24793,-15.74232 4.24805,-48.60156 4.24805,-48.60156 0,0 0.12484,-32.98446 -4.24805,-48.85156 -2.2489,-8.620737 -9.11944,-15.491334 -17.74023,-17.740237 -15.86676,-4.372847 -79.21094,-4.373047 -79.21094,-4.373047 z"
         style="fill:#ffcc5c;fill-opacity:0.99534881;fill-rule:nonzero;stroke:none" /></g></g><g
     id="layer1"><path
       d="m 176.30079,150.8703 c -5.41026,-4.12659 -12.5539,-7.4192 -23.09161,-10.81331 -20.61858,-6.5997 -20.61858,-11.7271 -20.61858,-14.29447 0,-5.86719 6.50539,-11.91572 17.50002,-11.91572 9.25405,0 16.40493,4.58352 19.05934,6.59972 l 1.46497,1.10235 16.40487,-11.09617 -1.83484,-2.10319 c -0.54393,-0.64542 -13.1921,-15.39682 -35.18132,-15.39682 -10.545,0 -20.24872,3.39411 -27.30528,9.52966 -7.05657,6.14274 -11.0889,14.57729 -11.0889,23.36718 0,9.35562 4.12662,17.23169 12.18402,23.37449 5.41028,4.11933 12.55391,7.41918 23.09162,10.80606 20.61854,6.51262 20.61854,11.73435 20.61854,14.30169 0,5.86719 -6.50542,11.91568 -17.5,11.91568 -9.25407,0 -16.40491,-4.5835 -19.05931,-6.59965 l -1.46498,-1.10235 -16.40493,11.09612 1.83489,2.1032 c 0.55118,0.63822 13.19936,15.30254 35.09433,15.30254 10.53773,0 20.24865,-3.38688 27.30527,-9.52962 7.05653,-6.14279 11.08163,-14.66435 11.08163,-23.36724 0,-9.26129 -4.0251,-17.04309 -12.08975,-23.28015 z"
       id="path4032"
       style="fill-rule:nonzero;stroke-width:4.64153051;fill:#88d8b0;fill-opacity:1" /></g></svg>